<svg width="400" height="200" viewBox="0 0 400 200" xmlns="http://www.w3.org/2000/svg">
  <!-- Background (Optional, usually transparent for logos) -->

  <!-- PAC-MAN (PowerShell Blue) -->
  <path d="M 80 100 A 50 50 0 1 1 123.3 65 L 80 100 L 123.3 135 A 50 50 0 0 1 80 150 Z" fill="#0078D4" transform="translate(0, -20)"/>
  <circle cx="95" cy="65" r="5" fill="#1a1a1a"/>

  <!-- CHOCO ICON (Brown Box) -->
  <rect x="150" cy="85" width="25" height="25" fill="#7B4B2A" transform="translate(0, -10)"/>

  <!-- SCOOP ICON (White Semicircle) -->
  <path d="M 215 80 A 15 15 0 0 1 215 110 Z" fill="#FFFFFF" transform="translate(0, -5)"/>

  <!-- WINGET ICON (Blue Wing/Feather) -->
  <path d="M 260 95 C 260 80 280 75 295 75 C 285 85 285 95 295 105 C 280 105 260 110 260 95 Z" fill="#0078D4" transform="translate(0, -5)"/>
  <path d="M 265 95 C 265 85 275 82 285 82 C 278 88 278 92 285 98 C 275 98 265 102 265 95 Z" fill="#1e1e1e" opacity="0.3" transform="translate(0, -5)"/>

  <!-- TEXT (pacwin_) -->
  <text x="80" y="160" font-family="monospace, 'Courier New'" font-size="45" font-weight="bold" fill="#4CAF50">pacwin<tspan fill="#4CAF50" opacity="0.6">_</tspan></text>
</svg>
